<?xml version="1.0" standalone="no"?>
<!DOCTYPE svg PUBLIC "-//W3C//DTD SVG 20010904//EN"
 "http://www.w3.org/TR/2001/REC-SVG-20010904/DTD/svg10.dtd">
<svg version="1.0" xmlns="http://www.w3.org/2000/svg"
 width="192.000000pt" height="192.000000pt" viewBox="0 0 192.000000 192.000000"
 preserveAspectRatio="xMidYMid meet">
<metadata>
Created by potrace 1.16, written by Peter Selinger 2001-2019
</metadata>
<g transform="translate(0.000000,192.000000) scale(0.100000,-0.100000)"
fill="#000000" stroke="none">
<path d="M0 960 l0 -960 960 0 960 0 0 960 0 960 -960 0 -960 0 0 -960z m1083
803 c-7 -2 -21 -2 -30 0 -10 3 -4 5 12 5 17 0 24 -2 18 -5z m-3 -229 c68 -31
114 -74 148 -139 24 -44 27 -61 27 -148 0 -53 1 -97 1 -97 1 0 21 7 44 15 23
8 44 15 46 15 9 0 26 -82 18 -89 -12 -11 -254 -95 -258 -90 -7 7 -76 246 -76
261 0 8 16 20 38 26 44 14 57 3 67 -59 9 -53 22 -57 30 -9 26 154 -125 285
-272 236 -86 -29 -143 -108 -143 -198 1 -75 28 -129 89 -174 l51 -38 0 -58 c0
-32 -1 -58 -3 -58 -2 0 -37 25 -77 55 -123 92 -167 176 -158 298 9 109 69 196
170 247 82 41 176 42 258 4z m-65 -214 c4 -6 3 -184 -1 -395 l-7 -385 -43 0
-44 0 0 395 0 395 44 0 c25 0 48 -5 51 -10z m84 -427 c110 -81 152 -149 159
-259 4 -62 1 -79 -23 -133 -32 -70 -94 -133 -162 -163 -64 -28 -172 -29 -234
-1 -145 65 -222 227 -171 360 l20 52 -32 -7 c-70 -14 -80 -10 -87 33 -4 22 -5
42 -4 44 9 9 271 59 277 53 10 -10 43 -270 36 -278 -4 -3 -24 -8 -46 -11 l-40
-5 -9 63 c-10 64 -10 64 -23 34 -20 -46 -14 -112 15 -162 72 -123 247 -139
339 -31 81 94 66 229 -34 308 -37 29 -40 35 -40 81 0 57 8 60 59 22z"/>
</g>
</svg>
