<?xml version="1.0" standalone="no"?>
<!DOCTYPE svg PUBLIC "-//W3C//DTD SVG 20010904//EN"
 "http://www.w3.org/TR/2001/REC-SVG-20010904/DTD/svg10.dtd">
<svg version="1.0" xmlns="http://www.w3.org/2000/svg"
 width="300.000000pt" height="300.000000pt" viewBox="0 0 300.000000 300.000000"
 preserveAspectRatio="xMidYMid meet">
<metadata>
Created by potrace 1.16, written by Peter Selinger 2001-2019
</metadata>
<g transform="translate(0.000000,300.000000) scale(0.100000,-0.100000)"
fill="#000000" stroke="none">
<path d="M1335 2989 c-505 -61 -946 -369 -1165 -814 -67 -136 -101 -233 -132
-379 -29 -134 -31 -413 -5 -556 60 -324 236 -635 479 -849 276 -242 619 -371
988 -371 406 0 769 150 1055 435 207 207 344 460 407 750 31 144 36 390 10
540 -58 335 -203 610 -445 841 -206 197 -459 328 -745 385 -116 22 -336 32
-447 18z m855 -904 l0 -185 -250 0 -250 0 0 -104 0 -104 83 -7 c322 -26 516
-73 585 -141 39 -39 41 -72 7 -112 -59 -70 -256 -119 -597 -147 l-78 -7 -2
-331 -3 -332 -197 -3 -198 -2 0 334 0 335 -57 5 c-409 42 -567 86 -609 168
-15 28 -15 34 -1 64 19 39 78 75 171 103 65 20 280 53 429 67 l67 6 0 104 0
104 -255 0 -255 0 0 185 0 185 705 0 705 0 0 -185z"/>
<path d="M1190 1619 c-257 -24 -500 -89 -500 -135 0 -34 163 -81 375 -109 169
-22 507 -30 699 -16 250 19 472 63 534 107 22 15 22 17 6 35 -34 38 -260 95
-449 114 -33 3 -83 8 -112 11 l-52 5 -3 -113 -3 -113 -197 -3 -198 -2 0 115
c0 63 -3 114 -7 114 -5 -1 -46 -5 -93 -10z"/>
</g>
</svg>
