<?xml version="1.0" standalone="no"?>
<!DOCTYPE svg PUBLIC "-//W3C//DTD SVG 20010904//EN"
 "http://www.w3.org/TR/2001/REC-SVG-20010904/DTD/svg10.dtd">
<svg version="1.0" xmlns="http://www.w3.org/2000/svg"
 width="295.000000pt" height="296.000000pt" viewBox="0 0 295.000000 296.000000"
 preserveAspectRatio="xMidYMid meet">
<metadata>
Created by potrace 1.16, written by Peter Selinger 2001-2019
</metadata>
<g transform="translate(0.000000,296.000000) scale(0.100000,-0.100000)"
fill="#000000" stroke="none">
<path d="M1 2303 l1 -658 18 96 c65 347 241 650 509 873 188 157 410 263 655
314 116 24 458 23 576 -1 590 -122 1041 -582 1156 -1177 27 -145 26 -453 -4
-577 -95 -400 -325 -731 -652 -940 -145 -93 -355 -176 -510 -203 -36 -6 -87
-15 -115 -19 -30 -5 219 -9 633 -10 l682 -1 0 1480 0 1480 -1475 0 -1475 0 1
-657z"/>
<path d="M1250 2815 c-147 -24 -240 -55 -393 -131 -374 -185 -653 -566 -723
-989 -19 -119 -14 -376 11 -490 85 -397 330 -725 690 -924 104 -58 221 -100
368 -133 148 -32 389 -32 537 1 135 30 235 64 337 117 459 236 743 691 744
1192 0 302 -76 551 -242 792 -179 260 -456 458 -748 536 -160 43 -418 56 -581
29z m410 -90 c243 -37 407 -113 648 -303 15 -11 12 -17 -25 -53 l-40 -41 -69
56 c-196 158 -515 260 -758 242 -266 -20 -528 -125 -694 -279 l-22 -21 -40 39
-40 39 27 28 c59 62 221 162 344 213 205 86 446 114 669 80z m-1074 -519
c-103 -126 -183 -286 -229 -460 -19 -70 -22 -108 -21 -271 0 -163 3 -202 22
-272 46 -177 124 -329 239 -471 l26 -33 -39 -40 -39 -40 -43 47 c-131 143
-241 387 -278 613 -31 186 -9 419 57 612 43 127 148 310 231 405 l31 35 40
-40 40 -40 -37 -45z m1872 62 c133 -170 220 -369 258 -592 20 -118 15 -340
-10 -451 -47 -209 -149 -419 -274 -565 l-30 -35 -40 38 -40 39 49 64 c109 145
187 310 222 473 24 116 28 319 8 431 -35 198 -119 382 -243 532 l-39 47 37 40
c20 23 40 41 44 41 5 0 30 -28 58 -62z m-1078 -164 c0 -102 2 -115 16 -110 9
3 33 6 55 6 l39 0 0 110 0 110 75 0 75 0 0 -114 0 -114 48 -6 c138 -20 245
-85 277 -171 27 -69 18 -180 -18 -232 -15 -22 -39 -46 -52 -53 -34 -18 -32
-25 16 -39 95 -28 155 -123 153 -241 -2 -114 -38 -196 -112 -253 -40 -31 -168
-72 -254 -82 l-57 -6 -3 -117 -3 -117 -70 0 -70 0 -3 117 -3 118 -54 0 -55 0
0 -120 0 -120 -70 0 c-80 0 -72 -17 -70 142 l1 98 -145 0 c-80 0 -146 4 -146
8 0 10 18 117 26 150 4 22 9 23 67 20 34 -1 68 1 75 5 9 6 12 88 12 354 0 409
7 383 -107 383 l-73 0 0 80 0 80 145 0 145 0 0 115 0 115 70 0 70 0 0 -116z
m-598 -1545 c129 -96 297 -173 463 -210 39 -9 122 -14 235 -13 157 0 185 3
275 27 124 34 315 127 413 202 79 61 85 61 132 10 l25 -27 -45 -40 c-71 -64
-154 -116 -275 -174 -434 -209 -966 -142 -1338 170 l-48 40 38 38 c20 21 39
38 41 38 2 0 40 -27 84 -61z"/>
<path d="M1418 1823 l-38 -4 0 -141 0 -141 98 6 c120 7 162 19 202 58 26 26
30 38 30 84 0 48 -3 56 -35 84 -48 42 -154 64 -257 54z"/>
<path d="M1385 1389 c-3 -8 -4 -80 -3 -159 l3 -145 55 -3 c77 -5 205 16 258
40 120 57 108 195 -22 246 -75 30 -282 45 -291 21z"/>
<path d="M1 668 l-1 -668 673 1 c408 1 652 5 622 10 -27 4 -79 13 -115 19 -36
7 -119 29 -186 51 -480 157 -862 592 -963 1098 -11 53 -22 110 -24 126 -2 17
-5 -270 -6 -637z"/>
</g>
</svg>
