<?xml version="1.0" standalone="no"?>
<!DOCTYPE svg PUBLIC "-//W3C//DTD SVG 20010904//EN"
 "http://www.w3.org/TR/2001/REC-SVG-20010904/DTD/svg10.dtd">
<svg version="1.0" xmlns="http://www.w3.org/2000/svg"
 width="181.000000pt" height="181.000000pt" viewBox="0 0 181.000000 181.000000"
 preserveAspectRatio="xMidYMid meet">
<metadata>
Created by potrace 1.16, written by Peter Selinger 2001-2019
</metadata>
<g transform="translate(0.000000,181.000000) scale(0.100000,-0.100000)"
fill="#000000" stroke="none">
<path d="M0 905 l0 -905 905 0 905 0 0 905 0 905 -905 0 -905 0 0 -905z m728
633 c13 -13 16 -66 6 -92 -3 -8 -38 -31 -78 -51 -89 -44 -162 -107 -215 -185
-192 -289 -90 -666 224 -818 68 -34 80 -51 73 -107 -6 -53 -28 -53 -135 -1
-184 91 -328 272 -368 462 -19 89 -19 222 1 304 47 204 210 396 402 476 66 27
74 28 90 12z m482 -36 c112 -55 243 -187 298 -302 52 -107 72 -191 72 -300 0
-193 -63 -343 -200 -481 -72 -73 -100 -94 -183 -135 -107 -52 -129 -52 -135 1
-7 56 5 73 73 107 423 206 428 796 9 1003 -76 38 -84 47 -84 99 0 67 27 68
150 8z m-252 -214 c2 -48 6 -58 21 -58 36 0 108 -57 130 -104 33 -66 27 -80
-36 -84 -48 -3 -53 -1 -66 25 -26 50 -52 66 -110 67 -90 1 -140 -53 -106 -113
16 -29 50 -42 171 -66 132 -27 188 -84 188 -188 0 -81 -32 -136 -103 -177 -29
-16 -60 -30 -69 -30 -14 0 -18 -11 -20 -57 l-3 -58 -55 0 -55 0 -3 56 c-3 56
-4 57 -36 63 -56 11 -121 59 -145 108 -38 80 -23 111 51 106 40 -3 44 -6 63
-47 26 -54 55 -70 127 -71 73 0 118 33 118 87 0 67 -20 81 -150 103 -87 15
-164 53 -188 93 -58 96 -23 216 79 267 21 11 47 20 59 20 18 0 20 6 20 53 0
30 3 57 7 61 4 4 30 6 58 4 l50 -3 3 -57z"/>
</g>
</svg>
