<?xml version="1.0" standalone="no"?>
<!DOCTYPE svg PUBLIC "-//W3C//DTD SVG 20010904//EN"
 "http://www.w3.org/TR/2001/REC-SVG-20010904/DTD/svg10.dtd">
<svg version="1.0" xmlns="http://www.w3.org/2000/svg"
 width="400.000000pt" height="400.000000pt" viewBox="0 0 400.000000 400.000000"
 preserveAspectRatio="xMidYMid meet">
<metadata>
Created by potrace 1.16, written by Peter Selinger 2001-2019
</metadata>
<g transform="translate(0.000000,400.000000) scale(0.100000,-0.100000)"
fill="#000000" stroke="none">
<path d="M2755 3005 c-134 -29 -260 -100 -353 -199 -29 -31 -55 -56 -58 -56
-2 0 -4 59 -4 130 l0 130 -335 -2 -336 -3 0 -465 c1 -566 -6 -678 -43 -754
-34 -70 -103 -131 -169 -151 -66 -19 -171 -19 -230 1 -63 21 -130 83 -164 152
l-28 57 -5 580 -5 580 -335 0 -335 0 -3 -540 c-2 -308 1 -596 7 -670 25 -324
153 -545 381 -660 92 -47 167 -65 295 -72 176 -9 325 28 453 116 59 39 162
138 162 153 0 5 4 8 8 8 4 0 7 -58 7 -130 l-2 -130 339 0 338 0 0 554 c0 525
1 557 20 618 54 176 225 254 421 192 94 -30 167 -122 188 -238 7 -38 11 -252
11 -593 l0 -533 335 0 335 0 0 619 c0 666 -3 708 -54 860 -79 234 -276 407
-510 450 -80 15 -257 13 -331 -4z"/>
</g>
</svg>
